<svg width="512" height="512" viewBox="0 0 512 512" fill="none" xmlns="http://www.w3.org/2000/svg">
<g clip-path="url(#clip0_5_1386)">
<path d="M92.65 445.81C92.3911 446.005 92.2057 446.283 92.1241 446.597C92.0424 446.911 92.0691 447.243 92.2 447.54C95.16 454.153 96.2767 460.883 95.55 467.73C94.1567 480.817 88.0567 490.823 77.25 497.75C69.7767 502.537 61.45 504.473 52.27 503.56C41.3567 502.473 32.4967 497.973 25.69 490.06C21.43 485.113 18.5733 479.49 17.12 473.19C15.7133 467.103 15.7167 460.977 17.13 454.81C19.0367 446.483 23.3067 439.443 29.94 433.69C34.9133 429.377 40.6033 426.5 47.01 425.06C53.09 423.7 59.08 423.73 64.98 425.15C70.94 426.59 76.4433 429.357 81.49 433.45C81.6641 433.59 81.8802 433.668 82.1045 433.671C82.3289 433.675 82.5488 433.604 82.73 433.47L155.37 378.02C155.551 377.879 155.683 377.684 155.748 377.461C155.812 377.239 155.806 377.001 155.73 376.78L152.84 368.55C152.79 368.407 152.701 368.282 152.584 368.195C152.468 368.107 152.33 368.06 152.19 368.06L95.69 368.18C95.5467 368.18 95.4078 368.229 95.2953 368.318C95.1829 368.407 95.1036 368.531 95.07 368.67C93.0167 376.797 89.1367 383.56 83.43 388.96C78.6633 393.467 72.8933 396.647 66.12 398.5C55.7733 401.333 46.0033 400.127 36.81 394.88C30.9367 391.527 26.1267 387 22.38 381.3C16.18 371.86 14.52 361.577 17.4 350.45C19.1533 343.657 22.22 337.817 26.6 332.93C32.2867 326.583 39.44 322.543 48.06 320.81C60.4267 318.33 71.6333 321.263 81.68 329.61C81.7898 329.704 81.9272 329.758 82.0691 329.763C82.2111 329.769 82.3491 329.725 82.46 329.64L110.23 308.4C110.292 308.353 110.342 308.293 110.377 308.224C110.412 308.154 110.43 308.078 110.43 308C110.43 307.922 110.412 307.846 110.377 307.776C110.342 307.707 110.292 307.647 110.23 307.6L82.81 286.55C82.6072 286.397 82.3588 286.317 82.1048 286.322C81.8508 286.327 81.606 286.418 81.41 286.58C75.5033 291.46 68.9433 294.427 61.73 295.48C55.1233 296.447 48.5633 295.753 42.05 293.4C32.6767 290.013 25.5133 283.693 20.56 274.44C17.6333 268.96 16.1233 263.113 16.03 256.9C15.9433 250.913 17.13 245.163 19.59 239.65C22.0767 234.083 25.6567 229.353 30.33 225.46C34.7567 221.767 39.8967 219.123 45.75 217.53C58.5233 214.037 70.55 216.75 81.83 225.67C81.9171 225.741 82.0257 225.781 82.1383 225.783C82.2508 225.785 82.3606 225.748 82.45 225.68L110.07 204.63C110.158 204.565 110.229 204.48 110.278 204.382C110.328 204.285 110.354 204.177 110.355 204.067C110.356 203.958 110.332 203.85 110.284 203.752C110.236 203.653 110.166 203.567 110.08 203.5L82.78 182.57C82.5778 182.416 82.3292 182.334 82.0737 182.337C81.8182 182.341 81.5705 182.43 81.37 182.59C78.1767 185.15 74.8133 187.21 71.28 188.77C67.7667 190.31 63.99 191.28 59.95 191.68C51.67 192.493 44.04 190.97 37.06 187.11C31.0867 183.81 26.2267 179.34 22.48 173.7C18.2267 167.307 16.0667 160.073 16 152C15.9467 145.633 17.62 139.36 21.02 133.18C25.3 125.4 31.17 119.703 38.63 116.09C44.67 113.163 51.1333 111.833 58.02 112.1C66.98 112.453 74.9933 115.65 82.06 121.69C88.54 127.223 92.8767 134.437 95.07 143.33C95.1036 143.469 95.1829 143.593 95.2953 143.682C95.4078 143.771 95.5467 143.82 95.69 143.82L152.15 143.99C152.334 143.991 152.518 143.924 152.676 143.798C152.833 143.673 152.957 143.495 153.03 143.29L155.94 135.1C155.99 134.957 155.999 134.806 155.964 134.668C155.93 134.53 155.855 134.411 155.75 134.33L82.63 78.45C82.4588 78.3189 82.2487 78.2495 82.0343 78.2532C81.8199 78.2568 81.6138 78.3333 81.45 78.47C72.85 85.5633 63.0333 88.6567 52 87.75C42.2733 86.95 33.7933 82.68 26.56 74.94C19.9733 67.88 16.4833 59.6367 16.09 50.21C15.8033 43.4033 17.1033 36.9367 19.99 30.81C23.1233 24.1567 27.76 18.8267 33.9 14.82C39.4667 11.18 45.7033 9.02333 52.61 8.34999C62.4567 7.38333 71.2933 9.77333 79.12 15.52C84.6133 19.5467 88.8633 24.5967 91.87 30.67C97.1633 41.3367 97.29 52.7767 92.25 64.99C92.1951 65.1178 92.186 65.2612 92.2241 65.3972C92.2622 65.5332 92.3453 65.6539 92.46 65.74L165.35 121.49C165.51 121.613 165.706 121.678 165.907 121.676C166.108 121.675 166.303 121.606 166.46 121.48C171.6 117.44 177.06 114.687 182.84 113.22C188.653 111.753 194.6 111.677 200.68 112.99C207.127 114.383 212.88 117.24 217.94 121.56C224.493 127.16 228.87 134.417 231.07 143.33C231.104 143.47 231.182 143.595 231.293 143.684C231.404 143.773 231.54 143.821 231.68 143.82L271.13 143.99C271.244 143.991 271.357 143.97 271.462 143.926C271.568 143.882 271.664 143.818 271.745 143.736C271.825 143.654 271.89 143.557 271.934 143.449C271.977 143.342 272 143.226 272 143.11C272 138.53 272 134.003 272 129.53C272 122.023 272.127 117.507 272.38 115.98C273.7 108.06 278.177 102.17 285.81 98.31C290.823 95.7767 296.31 95.3667 302.27 97.08C308.81 98.9533 313.643 102.647 316.77 108.16C318.243 110.753 319.213 113.763 319.68 117.19C320.093 120.243 320.18 123.447 319.94 126.8C319.93 126.954 319.952 127.108 320.004 127.253C320.055 127.398 320.136 127.53 320.24 127.642C320.344 127.754 320.47 127.842 320.609 127.902C320.749 127.962 320.899 127.992 321.05 127.99L332.19 127.95C332.505 127.944 332.812 127.812 333.05 127.58C384.41 76.0133 415.913 44.59 427.56 33.31C428.62 32.2833 430.517 31.8033 433.25 31.87C438.563 31.99 443.76 32.0133 448.84 31.94C449.066 31.9369 449.287 31.8682 449.475 31.7422C449.663 31.6162 449.811 31.4382 449.9 31.23C452.8 24.4033 457.667 19.7433 464.5 17.25C468.8 15.6833 473.397 15.61 478.29 17.03C486.563 19.4367 492.05 24.5933 494.75 32.5C495.937 35.9667 496.273 39.5167 495.76 43.15C495.28 46.5567 494.05 49.8067 492.07 52.9C489.05 57.62 484.977 60.8367 479.85 62.55C474.037 64.4967 468.34 64.32 462.76 62.02C456.967 59.6333 452.67 55.23 449.87 48.81C449.762 48.5691 449.589 48.3644 449.371 48.2207C449.152 48.077 448.899 48.0003 448.64 48L435.81 48.06C435.655 48.0599 435.5 48.0917 435.354 48.1534C435.208 48.2152 435.074 48.3058 434.96 48.42C404.033 79.34 373.113 110.263 342.2 141.19C341.207 142.183 340.083 142.923 338.83 143.41C337.937 143.757 336.647 143.94 334.96 143.96C330.22 144.013 325.457 144.027 320.67 144C320.492 144 320.322 144.071 320.196 144.196C320.071 144.322 320 144.492 320 144.67V167.33C320 167.508 320.071 167.678 320.196 167.804C320.322 167.929 320.492 168 320.67 168H356.03C356.22 168 356.409 167.962 356.586 167.889C356.762 167.815 356.924 167.707 357.06 167.57C378.127 146.377 398.96 125.623 419.56 105.31C420.647 104.243 422.627 103.74 425.5 103.8C433.393 103.967 441.177 104.013 448.85 103.94C449.033 103.936 449.211 103.882 449.364 103.783C449.516 103.684 449.636 103.544 449.71 103.38C452.863 96.4467 457.793 91.7367 464.5 89.25C468.76 87.67 473.357 87.5967 478.29 89.03C486.563 91.4367 492.05 96.5933 494.75 104.5C495.937 107.967 496.273 111.517 495.76 115.15C495.28 118.557 494.05 121.803 492.07 124.89C489.057 129.61 484.993 132.827 479.88 134.54C474.033 136.5 468.317 136.323 462.73 134.01C456.937 131.603 452.63 127.16 449.81 120.68C449.721 120.478 449.575 120.307 449.391 120.186C449.206 120.065 448.991 120.001 448.77 120H428.12C427.646 120 427.19 120.187 426.85 120.52C406.323 141.047 386.047 161.297 366.02 181.27C365.027 182.263 363.903 183 362.65 183.48C361.75 183.827 360.46 184 358.78 184C346.1 184 333.397 184 320.67 184C320.492 184 320.322 184.071 320.196 184.196C320.071 184.322 320 184.492 320 184.67V207.32C320 207.5 320.072 207.673 320.199 207.801C320.327 207.928 320.5 208 320.68 208H387.81C388.341 208 388.852 207.788 389.23 207.41C399.517 196.99 409.627 186.957 419.56 177.31C420.667 176.243 422.647 175.74 425.5 175.8C433.393 175.967 441.173 176.013 448.84 175.94C449.066 175.937 449.287 175.868 449.475 175.742C449.663 175.616 449.811 175.438 449.9 175.23C452.8 168.403 457.667 163.743 464.5 161.25C468.8 159.683 473.397 159.61 478.29 161.03C486.563 163.437 492.05 168.593 494.75 176.5C495.937 179.967 496.273 183.517 495.76 187.15C495.28 190.557 494.05 193.803 492.07 196.89C489.057 201.61 484.993 204.827 479.88 206.54C474.033 208.5 468.317 208.32 462.73 206C456.937 203.593 452.63 199.153 449.81 192.68C449.721 192.478 449.575 192.307 449.391 192.186C449.206 192.065 448.991 192.001 448.77 192H428.1C427.639 192 427.193 192.183 426.86 192.51C416.993 202.377 407.38 211.967 398.02 221.28C397.027 222.267 395.903 223 394.65 223.48C393.75 223.827 392.46 224 390.78 224C367.433 224 344.063 224 320.67 224C320.492 224 320.322 224.071 320.196 224.196C320.071 224.322 320 224.492 320 224.67V247.32C320 247.5 320.072 247.673 320.199 247.801C320.327 247.928 320.5 248 320.68 248L448.83 247.94C449.058 247.94 449.282 247.873 449.472 247.747C449.663 247.62 449.811 247.441 449.9 247.23C452.8 240.403 457.667 235.743 464.5 233.25C468.8 231.683 473.397 231.61 478.29 233.03C486.563 235.437 492.05 240.593 494.75 248.5C495.937 251.967 496.273 255.517 495.76 259.15C495.28 262.557 494.05 265.803 492.07 268.89C489.057 273.61 484.993 276.827 479.88 278.54C474.033 280.5 468.317 280.323 462.73 278.01C456.937 275.603 452.63 271.16 449.81 264.68C449.721 264.478 449.575 264.307 449.391 264.186C449.206 264.065 448.991 264.001 448.77 264H320.67C320.582 264 320.495 264.017 320.414 264.051C320.332 264.085 320.258 264.134 320.196 264.196C320.134 264.258 320.085 264.332 320.051 264.414C320.017 264.495 320 264.582 320 264.67V287.31C320 287.493 320.073 287.669 320.202 287.798C320.331 287.927 320.507 288 320.69 288C344.397 288 367.917 287.987 391.25 287.96C394.05 287.953 396.42 288.93 398.36 290.89C407.66 300.257 417.107 309.737 426.7 319.33C427.129 319.759 427.708 320 428.31 320L448.85 319.94C449.031 319.94 449.209 319.887 449.361 319.788C449.514 319.688 449.635 319.547 449.71 319.38C452.863 312.447 457.793 307.737 464.5 305.25C468.76 303.67 473.357 303.597 478.29 305.03C486.563 307.437 492.05 312.593 494.75 320.5C495.937 323.967 496.273 327.517 495.76 331.15C495.28 334.557 494.05 337.803 492.07 340.89C489.057 345.61 484.993 348.827 479.88 350.54C474.033 352.5 468.317 352.323 462.73 350.01C456.937 347.603 452.63 343.16 449.81 336.68C449.721 336.478 449.575 336.307 449.391 336.186C449.206 336.065 448.991 336.001 448.77 336C440.257 336 431.75 336 423.25 336C421.423 336 419.513 334.997 417.52 332.99C408.04 323.45 398.547 313.923 389.04 304.41C388.929 304.299 388.797 304.211 388.651 304.151C388.505 304.091 388.349 304.06 388.19 304.06L320.67 304C320.492 304 320.322 304.071 320.196 304.196C320.071 304.322 320 304.492 320 304.67V327.33C320 327.508 320.071 327.678 320.196 327.804C320.322 327.929 320.492 328 320.67 328C333.723 328 346.583 327.987 359.25 327.96C362.05 327.953 364.423 328.927 366.37 330.88C386.33 350.92 406.45 371.08 426.73 391.36C426.933 391.563 427.172 391.724 427.435 391.834C427.697 391.944 427.978 392 428.26 392L448.86 391.94C449.039 391.94 449.215 391.887 449.368 391.788C449.52 391.689 449.642 391.547 449.72 391.38C452.86 384.44 457.787 379.73 464.5 377.25C468.773 375.67 473.37 375.597 478.29 377.03C486.563 379.437 492.05 384.593 494.75 392.5C495.937 395.967 496.273 399.517 495.76 403.15C495.28 406.557 494.05 409.803 492.07 412.89C489.057 417.61 484.993 420.827 479.88 422.54C474.033 424.5 468.317 424.32 462.73 422C456.937 419.593 452.63 415.153 449.81 408.68C449.721 408.478 449.575 408.307 449.391 408.186C449.206 408.065 448.991 408.001 448.77 408C440.257 408 431.75 408 423.25 408C421.423 408 419.51 406.997 417.51 404.99C397.37 384.783 377.213 364.593 357.04 344.42C356.926 344.306 356.793 344.215 356.649 344.154C356.505 344.092 356.352 344.06 356.2 344.06L320.67 344C320.582 344 320.495 344.017 320.414 344.051C320.332 344.085 320.258 344.134 320.196 344.196C320.134 344.258 320.085 344.332 320.051 344.414C320.017 344.495 320 344.582 320 344.67V367.33C320 367.508 320.071 367.678 320.196 367.804C320.322 367.929 320.492 368 320.67 368C325.47 368 330.08 368 334.5 368C337.74 368 340.3 368.94 342.18 370.82C372.893 401.52 403.73 432.353 434.69 463.32C434.905 463.535 435.159 463.706 435.435 463.821C435.712 463.936 436.006 463.993 436.3 463.99L448.86 463.94C449.039 463.94 449.215 463.887 449.368 463.788C449.52 463.689 449.642 463.547 449.72 463.38C452.86 456.447 457.787 451.737 464.5 449.25C468.767 447.67 473.363 447.597 478.29 449.03C486.563 451.437 492.05 456.593 494.75 464.5C495.937 467.967 496.273 471.517 495.76 475.15C495.28 478.557 494.05 481.803 492.07 484.89C489.057 489.61 484.993 492.827 479.88 494.54C474.033 496.5 468.317 496.323 462.73 494.01C456.937 491.603 452.63 487.16 449.81 480.68C449.721 480.478 449.575 480.307 449.391 480.186C449.206 480.065 448.991 480.001 448.77 480C442.923 480 437.083 480 431.25 480C429.443 480 427.533 478.993 425.52 476.98C394.707 446.113 363.88 415.257 333.04 384.41C332.926 384.296 332.792 384.205 332.646 384.143C332.5 384.082 332.345 384.05 332.19 384.05L320.69 384C320.54 383.999 320.394 384.055 320.282 384.157C320.169 384.258 320.097 384.398 320.08 384.55C318.713 396.37 312.603 403.937 301.75 407.25C296.883 408.737 291.727 408.187 286.28 405.6C276.767 401.093 272.007 393.643 272 383.25C271.993 376.35 271.937 371.497 271.83 368.69C271.825 368.553 271.767 368.423 271.668 368.328C271.569 368.233 271.437 368.18 271.3 368.18H231.68C231.54 368.179 231.404 368.227 231.293 368.316C231.182 368.405 231.104 368.53 231.07 368.67C229.023 376.797 225.147 383.56 219.44 388.96C214.62 393.513 208.847 396.703 202.12 398.53C189.673 401.91 177.85 399.29 166.65 390.67C166.415 390.489 166.125 390.392 165.824 390.394C165.524 390.396 165.231 390.496 164.99 390.68L92.65 445.81ZM79.93 48C79.93 41.6507 77.4078 35.5615 72.9181 31.0719C68.4285 26.5822 62.3393 24.06 55.99 24.06C49.6407 24.06 43.5515 26.5822 39.0619 31.0719C34.5722 35.5615 32.05 41.6507 32.05 48C32.05 54.3493 34.5722 60.4385 39.0619 64.9281C43.5515 69.4178 49.6407 71.94 55.99 71.94C62.3393 71.94 68.4285 69.4178 72.9181 64.9281C77.4078 60.4385 79.93 54.3493 79.93 48ZM479.93 39.99C479.93 37.8868 479.095 35.8698 477.607 34.3826C476.12 32.8955 474.103 32.06 472 32.06C469.897 32.06 467.88 32.8955 466.393 34.3826C464.905 35.8698 464.07 37.8868 464.07 39.99C464.07 42.0932 464.905 44.1102 466.393 45.5973C467.88 47.0845 469.897 47.92 472 47.92C474.103 47.92 476.12 47.0845 477.607 45.5973C479.095 44.1102 479.93 42.0932 479.93 39.99ZM479.92 112C479.92 109.899 479.086 107.885 477.6 106.4C476.115 104.914 474.1 104.08 472 104.08C469.899 104.08 467.885 104.914 466.4 106.4C464.914 107.885 464.08 109.899 464.08 112C464.08 114.101 464.914 116.115 466.4 117.6C467.885 119.086 469.899 119.92 472 119.92C474.1 119.92 476.115 119.086 477.6 117.6C479.086 116.115 479.92 114.101 479.92 112ZM303.99 119.99C303.99 117.887 303.155 115.87 301.667 114.383C300.18 112.895 298.163 112.06 296.06 112.06H295.94C293.837 112.06 291.82 112.895 290.333 114.383C288.845 115.87 288.01 117.887 288.01 119.99V384.01C288.01 386.113 288.845 388.13 290.333 389.617C291.82 391.105 293.837 391.94 295.94 391.94H296.06C298.163 391.94 300.18 391.105 301.667 389.617C303.155 388.13 303.99 386.113 303.99 384.01V119.99ZM79.93 152C79.93 145.651 77.4078 139.561 72.9181 135.072C68.4285 130.582 62.3393 128.06 55.99 128.06C49.6407 128.06 43.5515 130.582 39.0619 135.072C34.5722 139.561 32.05 145.651 32.05 152C32.05 158.349 34.5722 164.439 39.0619 168.928C43.5515 173.418 49.6407 175.94 55.99 175.94C62.3393 175.94 68.4285 173.418 72.9181 168.928C77.4078 164.439 79.93 158.349 79.93 152ZM215.93 152C215.93 145.651 213.408 139.561 208.918 135.072C204.429 130.582 198.339 128.06 191.99 128.06C185.641 128.06 179.551 130.582 175.062 135.072C170.572 139.561 168.05 145.651 168.05 152C168.05 158.349 170.572 164.439 175.062 168.928C179.551 173.418 185.641 175.94 191.99 175.94C198.339 175.94 204.429 173.418 208.918 168.928C213.408 164.439 215.93 158.349 215.93 152ZM92.57 169.9L123.47 193.55C123.634 193.676 123.835 193.745 124.043 193.745C124.251 193.745 124.454 193.676 124.62 193.55L155.1 170.31C155.364 170.11 155.558 169.83 155.653 169.508C155.748 169.187 155.74 168.841 155.63 168.52L152.84 160.55C152.79 160.407 152.7 160.283 152.582 160.196C152.464 160.108 152.323 160.06 152.18 160.06H95.81C95.6757 160.059 95.5422 160.106 95.4277 160.194C95.3131 160.281 95.2232 160.406 95.17 160.55L92.22 168.51C92.1271 168.763 92.111 169.035 92.174 169.285C92.2369 169.535 92.3756 169.75 92.57 169.9ZM181.81 190.46C176.15 188.92 170.927 186.287 166.14 182.56C166.028 182.472 165.889 182.423 165.747 182.421C165.604 182.419 165.464 182.465 165.35 182.55L137.86 203.55C137.793 203.6 137.738 203.664 137.7 203.739C137.663 203.814 137.643 203.897 137.643 203.981C137.643 204.065 137.663 204.149 137.7 204.225C137.738 204.301 137.793 204.368 137.86 204.42L165.13 225.36C165.329 225.512 165.573 225.595 165.826 225.595C166.079 225.595 166.326 225.512 166.53 225.36C171.663 221.433 177.06 218.737 182.72 217.27C188.433 215.797 194.303 215.67 200.33 216.89C207.057 218.257 212.967 221.19 218.06 225.69C224.433 231.31 228.723 238.487 230.93 247.22C230.988 247.443 231.117 247.641 231.298 247.782C231.479 247.924 231.701 248 231.93 248L271.32 247.94C271.5 247.94 271.673 247.868 271.801 247.741C271.928 247.613 272 247.44 272 247.26L271.94 160.7C271.94 160.514 271.865 160.336 271.732 160.205C271.599 160.074 271.418 160 271.23 160H231.69C231.544 160.001 231.403 160.05 231.288 160.141C231.174 160.232 231.094 160.358 231.06 160.5C229.133 168.613 225.197 175.443 219.25 180.99C213.31 186.53 206.533 189.97 198.92 191.31C193.24 192.31 187.537 192.027 181.81 190.46ZM479.93 183.99C479.93 181.887 479.095 179.87 477.607 178.383C476.12 176.895 474.103 176.06 472 176.06C469.897 176.06 467.88 176.895 466.393 178.383C464.905 179.87 464.07 181.887 464.07 183.99C464.07 186.093 464.905 188.11 466.393 189.597C467.88 191.085 469.897 191.92 472 191.92C474.103 191.92 476.12 191.085 477.607 189.597C479.095 188.11 479.93 186.093 479.93 183.99ZM155.49 238.22L124.52 214.56C124.356 214.434 124.155 214.365 123.947 214.365C123.739 214.365 123.536 214.434 123.37 214.56L92.54 238.11C92.3125 238.283 92.1539 238.532 92.0917 238.814C92.0296 239.095 92.0679 239.391 92.2 239.65C93.4333 242.043 94.38 244.66 95.04 247.5C95.0718 247.641 95.1514 247.768 95.2658 247.859C95.3803 247.95 95.5228 247.999 95.67 248H152.31C152.447 248 152.582 247.952 152.697 247.863C152.811 247.773 152.9 247.646 152.95 247.5L155.79 239.47C155.874 239.236 155.89 238.989 155.836 238.764C155.782 238.539 155.661 238.348 155.49 238.22ZM79.93 256C79.93 249.651 77.4078 243.561 72.9181 239.072C68.4285 234.582 62.3393 232.06 55.99 232.06C49.6407 232.06 43.5515 234.582 39.0619 239.072C34.5722 243.561 32.05 249.651 32.05 256C32.05 262.349 34.5722 268.439 39.0619 272.928C43.5515 277.418 49.6407 279.94 55.99 279.94C62.3393 279.94 68.4285 277.418 72.9181 272.928C77.4078 268.439 79.93 262.349 79.93 256ZM215.93 256C215.93 249.651 213.408 243.561 208.918 239.072C204.429 234.582 198.339 232.06 191.99 232.06C185.641 232.06 179.551 234.582 175.062 239.072C170.572 243.561 168.05 249.651 168.05 256C168.05 262.349 170.572 268.439 175.062 272.928C179.551 277.418 185.641 279.94 191.99 279.94C198.339 279.94 204.429 277.418 208.918 272.928C213.408 268.439 215.93 262.349 215.93 256ZM479.93 255.99C479.93 253.887 479.095 251.87 477.607 250.383C476.12 248.895 474.103 248.06 472 248.06C469.897 248.06 467.88 248.895 466.393 250.383C464.905 251.87 464.07 253.887 464.07 255.99C464.07 257.031 464.275 258.063 464.674 259.025C465.072 259.987 465.656 260.861 466.393 261.597C467.129 262.334 468.003 262.918 468.965 263.316C469.927 263.715 470.959 263.92 472 263.92C473.041 263.92 474.073 263.715 475.035 263.316C475.997 262.918 476.871 262.334 477.607 261.597C478.344 260.861 478.928 259.987 479.326 259.025C479.725 258.063 479.93 257.031 479.93 255.99ZM92.57 273.9L123.47 297.55C123.634 297.676 123.835 297.745 124.043 297.745C124.251 297.745 124.454 297.676 124.62 297.55L155.1 274.31C155.364 274.11 155.558 273.83 155.653 273.508C155.748 273.187 155.74 272.841 155.63 272.52L152.84 264.55C152.79 264.407 152.7 264.283 152.582 264.196C152.464 264.108 152.323 264.06 152.18 264.06H95.81C95.6757 264.059 95.5422 264.106 95.4277 264.194C95.3131 264.281 95.2232 264.406 95.17 264.55L92.22 272.51C92.1271 272.763 92.111 273.035 92.174 273.285C92.2369 273.535 92.3756 273.75 92.57 273.9ZM137.73 308.47L165.26 329.51C165.443 329.649 165.667 329.723 165.896 329.719C166.124 329.716 166.344 329.635 166.52 329.49C171.44 325.39 176.883 322.617 182.85 321.17C188.743 319.737 194.683 319.68 200.67 321C207.923 322.6 214.35 326.117 219.95 331.55C225.443 336.87 229.073 343.393 230.84 351.12C230.897 351.371 231.036 351.594 231.234 351.754C231.432 351.914 231.678 352.001 231.93 352H271.13C271.361 352 271.582 351.908 271.745 351.745C271.908 351.582 272 351.361 272 351.13V264.88C272 264.647 271.907 264.423 271.742 264.258C271.577 264.093 271.353 264 271.12 264H231.66C231.511 263.999 231.366 264.051 231.25 264.145C231.133 264.24 231.052 264.372 231.02 264.52C229.333 272.213 225.623 278.837 219.89 284.39C212.93 291.143 204.843 294.927 195.63 295.74C190.35 296.2 185.32 295.657 180.54 294.11C175.867 292.59 171.317 290.167 166.89 286.84C166.599 286.622 166.245 286.504 165.88 286.506C165.516 286.508 165.161 286.629 164.87 286.85L137.73 307.53C137.657 307.585 137.599 307.656 137.558 307.738C137.518 307.819 137.497 307.909 137.497 308C137.497 308.091 137.518 308.181 137.558 308.262C137.599 308.344 137.657 308.415 137.73 308.47ZM155.49 342.22L124.52 318.56C124.356 318.434 124.155 318.365 123.947 318.365C123.739 318.365 123.536 318.434 123.37 318.56L92.54 342.11C92.3125 342.283 92.1539 342.532 92.0917 342.814C92.0296 343.095 92.0679 343.391 92.2 343.65C93.4333 346.043 94.38 348.66 95.04 351.5C95.0718 351.641 95.1514 351.768 95.2658 351.859C95.3803 351.95 95.5228 351.999 95.67 352H152.31C152.447 352 152.582 351.952 152.697 351.863C152.811 351.773 152.9 351.646 152.95 351.5L155.79 343.47C155.874 343.236 155.89 342.989 155.836 342.764C155.782 342.539 155.661 342.348 155.49 342.22ZM479.93 327.99C479.93 325.887 479.095 323.87 477.607 322.383C476.12 320.895 474.103 320.06 472 320.06C469.897 320.06 467.88 320.895 466.393 322.383C464.905 323.87 464.07 325.887 464.07 327.99C464.07 330.093 464.905 332.11 466.393 333.597C467.88 335.085 469.897 335.92 472 335.92C474.103 335.92 476.12 335.085 477.607 333.597C479.095 332.11 479.93 330.093 479.93 327.99ZM79.93 360C79.93 353.651 77.4078 347.561 72.9181 343.072C68.4285 338.582 62.3393 336.06 55.99 336.06C49.6407 336.06 43.5515 338.582 39.0619 343.072C34.5722 347.561 32.05 353.651 32.05 360C32.05 366.349 34.5722 372.439 39.0619 376.928C43.5515 381.418 49.6407 383.94 55.99 383.94C62.3393 383.94 68.4285 381.418 72.9181 376.928C77.4078 372.439 79.93 366.349 79.93 360ZM215.93 360C215.93 353.651 213.408 347.561 208.918 343.072C204.429 338.582 198.339 336.06 191.99 336.06C185.641 336.06 179.551 338.582 175.062 343.072C170.572 347.561 168.05 353.651 168.05 360C168.05 366.349 170.572 372.439 175.062 376.928C179.551 381.418 185.641 383.94 191.99 383.94C198.339 383.94 204.429 381.418 208.918 376.928C213.408 372.439 215.93 366.349 215.93 360ZM479.93 399.99C479.93 397.887 479.095 395.87 477.607 394.383C476.12 392.895 474.103 392.06 472 392.06C469.897 392.06 467.88 392.895 466.393 394.383C464.905 395.87 464.07 397.887 464.07 399.99C464.07 401.031 464.275 402.063 464.674 403.025C465.072 403.987 465.656 404.861 466.393 405.597C467.129 406.334 468.003 406.918 468.965 407.316C469.927 407.715 470.959 407.92 472 407.92C473.041 407.92 474.073 407.715 475.035 407.316C475.997 406.918 476.871 406.334 477.607 405.597C478.344 404.861 478.928 403.987 479.326 403.025C479.725 402.063 479.93 401.031 479.93 399.99ZM79.93 464C79.93 457.651 77.4078 451.561 72.9181 447.072C68.4285 442.582 62.3393 440.06 55.99 440.06C49.6407 440.06 43.5515 442.582 39.0619 447.072C34.5722 451.561 32.05 457.651 32.05 464C32.05 470.349 34.5722 476.439 39.0619 480.928C43.5515 485.418 49.6407 487.94 55.99 487.94C62.3393 487.94 68.4285 485.418 72.9181 480.928C77.4078 476.439 79.93 470.349 79.93 464ZM479.92 472C479.92 469.899 479.086 467.885 477.6 466.4C476.115 464.914 474.1 464.08 472 464.08C469.899 464.08 467.885 464.914 466.4 466.4C464.914 467.885 464.08 469.899 464.08 472C464.08 474.101 464.914 476.115 466.4 477.6C467.885 479.086 469.899 479.92 472 479.92C474.1 479.92 476.115 479.086 477.6 477.6C479.086 476.115 479.92 474.101 479.92 472Z" fill="black"/>
<path d="M255.296 183.987L240.676 184.013C240.295 184.013 239.987 184.323 239.987 184.704L240.013 199.324C240.013 199.705 240.323 200.013 240.704 200.013L255.324 199.987C255.705 199.987 256.013 199.677 256.013 199.296L255.987 184.676C255.987 184.295 255.677 183.987 255.296 183.987Z" fill="black"/>
<path d="M255.296 215.987L240.676 216.013C240.295 216.013 239.987 216.323 239.987 216.704L240.013 231.324C240.013 231.705 240.323 232.013 240.704 232.013L255.324 231.987C255.705 231.987 256.013 231.677 256.013 231.296L255.987 216.676C255.987 216.295 255.677 215.987 255.296 215.987Z" fill="black"/>
<path d="M255.466 279.987L240.506 280.013C240.219 280.014 239.986 280.247 239.987 280.534L240.013 295.494C240.014 295.781 240.247 296.014 240.534 296.013L255.494 295.987C255.781 295.986 256.014 295.753 256.013 295.466L255.987 280.506C255.986 280.219 255.753 279.986 255.466 279.987Z" fill="black"/>
<path d="M255.296 311.987L240.676 312.013C240.295 312.013 239.987 312.323 239.987 312.704L240.013 327.324C240.013 327.705 240.323 328.013 240.704 328.013L255.324 327.987C255.705 327.987 256.013 327.677 256.013 327.296L255.987 312.676C255.987 312.295 255.677 311.987 255.296 311.987Z" fill="black"/>
<circle cx="56" cy="48" r="24" fill="#6C4AB6"/>
<circle cx="56" cy="152" r="24" fill="#6C4AB6"/>
<circle cx="192" cy="152" r="24" fill="#8D9EFF"/>
<rect x="288" y="120" width="16" height="264" fill="#B9E0FF"/>
<circle cx="296" cy="384" r="8" fill="#B9E0FF"/>
<circle cx="296" cy="120" r="8" fill="#B9E0FF"/>
<circle cx="472" cy="112" r="8" fill="#8D72E1"/>
<circle cx="472" cy="184" r="8" fill="#8D72E1"/>
<circle cx="472" cy="40" r="8" fill="#8D72E1"/>
<circle cx="192" cy="256" r="24" fill="#8D9EFF"/>
<circle cx="192" cy="360" r="24" fill="#8D9EFF"/>
<circle cx="56" cy="256" r="24" fill="#6C4AB6"/>
<circle cx="56" cy="360" r="24" fill="#6C4AB6"/>
<circle cx="56" cy="464" r="24" fill="#6C4AB6"/>
<circle cx="472" cy="256" r="8" fill="#8D72E1"/>
<circle cx="472" cy="328" r="8" fill="#8D72E1"/>
<circle cx="472" cy="400" r="8" fill="#8D72E1"/>
<circle cx="472" cy="472" r="8" fill="#8D72E1"/>
<path d="M178.457 80V78.0664L185.074 77.6367V21.0469L178.457 20.6172V18.6836H200.113C205.928 18.6836 210.913 19.4141 215.066 20.875C219.22 22.3359 222.5 24.4557 224.906 27.2344C227.341 30.013 229.103 33.2357 230.191 36.9023C231.309 40.569 231.867 44.8086 231.867 49.6211C231.867 53.0872 231.509 56.3242 230.793 59.332C230.077 62.3112 228.931 65.0898 227.355 67.668C225.809 70.2174 223.861 72.4089 221.512 74.2422C219.191 76.0469 216.327 77.4648 212.918 78.4961C209.538 79.4987 205.742 80 201.531 80H178.457ZM196.074 77.207C197.621 77.4935 199.025 77.6367 200.285 77.6367C203.207 77.6367 205.799 77.1641 208.062 76.2188C210.354 75.2734 212.259 73.9701 213.777 72.3086C215.324 70.6185 216.599 68.5703 217.602 66.1641C218.604 63.7292 219.32 61.0938 219.75 58.2578C220.208 55.4219 220.438 52.3138 220.438 48.9336C220.438 45.6107 220.28 42.6458 219.965 40.0391C219.65 37.4323 219.048 34.8971 218.16 32.4336C217.301 29.9701 216.155 27.9362 214.723 26.332C213.29 24.7279 211.4 23.4531 209.051 22.5078C206.702 21.5339 203.952 21.0469 200.801 21.0469C199.197 21.0469 197.621 21.1901 196.074 21.4766V77.207ZM238.613 80V78.0664L245.23 77.6367V21.0469L238.613 20.6172V18.6836H262.848V20.6172L256.23 21.0469V77.207C260.9 77.5221 264.094 77.6797 265.812 77.6797C267.388 77.6797 268.763 77.6367 269.938 77.5508C271.141 77.4648 272.229 77.2786 273.203 76.9922C274.206 76.7057 275.036 76.4049 275.695 76.0898C276.383 75.7747 277.027 75.2878 277.629 74.6289C278.23 73.9414 278.717 73.2826 279.09 72.6523C279.462 71.9935 279.949 70.7331 280.551 68.8711C281.152 66.9805 281.682 64.8464 282.141 62.4688H283.602V80H238.613ZM288.715 80V78.0664L295.332 77.6367V21.0469L288.715 20.6172V18.6836H312.949V20.6172L306.332 21.0469V77.207C311.001 77.5221 314.195 77.6797 315.914 77.6797C317.49 77.6797 318.865 77.6367 320.039 77.5508C321.242 77.4648 322.331 77.2786 323.305 76.9922C324.307 76.7057 325.138 76.4049 325.797 76.0898C326.484 75.7747 327.129 75.2878 327.73 74.6289C328.332 73.9414 328.819 73.2826 329.191 72.6523C329.564 71.9935 330.051 70.7331 330.652 68.8711C331.254 66.9805 331.784 64.8464 332.242 62.4688H333.703V80H288.715Z" fill="black"/>
<path d="M223.656 444V443.209L226.363 443.033V419.883L223.656 419.707V418.916H233.57V419.707L230.863 419.883V443.033L233.57 443.209V444H223.656ZM236.137 444V443.209L238.844 443.033V419.883L236.137 419.707V418.916H246.051V419.707L243.344 419.883V443.033L246.051 443.209V444H236.137ZM248.617 444V443.209L251.324 443.033V419.883L248.617 419.707V418.916H258.531V419.707L255.824 419.883V443.033L258.531 443.209V444H248.617ZM260.869 427.529L261.045 418.916H280.24L280.416 427.512H279.449C279.285 426.609 279.139 425.883 279.01 425.332C278.893 424.781 278.746 424.201 278.57 423.592C278.395 422.982 278.213 422.508 278.025 422.168C277.838 421.828 277.609 421.488 277.34 421.148C277.07 420.809 276.76 420.562 276.408 420.41C276.068 420.246 275.67 420.117 275.213 420.023C274.756 419.918 274.229 419.865 273.631 419.865C273.584 419.865 273.484 419.871 273.332 419.883C273.191 419.883 273.062 419.883 272.945 419.883V443.033L275.67 443.209V444H265.756V443.209L268.445 443.033L268.34 419.9C268.223 419.9 268.088 419.9 267.936 419.9C267.795 419.889 267.701 419.883 267.654 419.883C267.127 419.883 266.658 419.912 266.248 419.971C265.838 420.029 265.463 420.141 265.123 420.305C264.795 420.469 264.508 420.645 264.262 420.832C264.016 421.02 263.787 421.289 263.576 421.641C263.365 421.992 263.184 422.332 263.031 422.66C262.891 422.988 262.738 423.439 262.574 424.014C262.422 424.576 262.176 425.748 261.836 427.529H260.869ZM155.225 488V487.209L157.352 487.033L165.666 462.195H166.457L175.053 487.033L177.373 487.209V488H167.969V487.209L170.342 487.033L168.268 480.723H160.393L158.354 487.033L160.727 487.209V488H155.225ZM160.709 479.668L167.881 479.527L164.365 468.734H164.295L160.709 479.668ZM178.375 488V487.209L181.082 487.033V463.883L178.375 463.707V462.916H188.289V463.707L185.582 463.883V486.857C187.492 486.986 188.799 487.051 189.502 487.051C190.146 487.051 190.709 487.033 191.189 486.998C191.682 486.963 192.127 486.887 192.525 486.77C192.936 486.652 193.275 486.529 193.545 486.4C193.826 486.271 194.09 486.072 194.336 485.803C194.582 485.521 194.781 485.252 194.934 484.994C195.086 484.725 195.285 484.209 195.531 483.447C195.777 482.674 195.994 481.801 196.182 480.828H196.779V488H178.375ZM198.871 488V487.209L201.578 487.033V463.883L198.871 463.707V462.916H208.785V463.707L206.078 463.883V486.857C207.988 486.986 209.295 487.051 209.998 487.051C210.643 487.051 211.205 487.033 211.686 486.998C212.178 486.963 212.623 486.887 213.021 486.77C213.432 486.652 213.771 486.529 214.041 486.4C214.322 486.271 214.586 486.072 214.832 485.803C215.078 485.521 215.277 485.252 215.43 484.994C215.582 484.725 215.781 484.209 216.027 483.447C216.273 482.674 216.49 481.801 216.678 480.828H217.275V488H198.871ZM217.979 488V487.209L220.105 487.033L228.42 462.195H229.211L237.807 487.033L240.127 487.209V488H230.723V487.209L233.096 487.033L231.021 480.723H223.146L221.107 487.033L223.48 487.209V488H217.979ZM223.463 479.668L230.635 479.527L227.119 468.734H227.049L223.463 479.668ZM241.129 488V487.209L243.836 487.033V463.883L241.129 463.707V462.916H251.043V463.707L248.336 463.883V474.605L257.793 474.465V463.883L255.086 463.707V462.916H265V463.707L262.293 463.883V487.033L265 487.209V488H255.086V487.209L257.793 487.033V475.66H248.336V487.033L251.043 487.209V488H241.129ZM266.178 488V487.209L268.305 487.033L276.619 462.195H277.41L286.006 487.033L288.326 487.209V488H278.922V487.209L281.295 487.033L279.221 480.723H271.346L269.307 487.033L271.68 487.209V488H266.178ZM271.662 479.668L278.834 479.527L275.318 468.734H275.248L271.662 479.668ZM289.328 488V487.209L292.035 487.033V463.883L289.328 463.707V462.916H298.732C299.74 462.916 300.654 462.963 301.475 463.057C302.307 463.15 303.127 463.326 303.936 463.584C304.744 463.83 305.418 464.158 305.957 464.568C306.508 464.979 306.947 465.523 307.275 466.203C307.615 466.871 307.785 467.656 307.785 468.559C307.785 469.273 307.627 469.936 307.311 470.545C306.994 471.143 306.59 471.641 306.098 472.039C305.617 472.438 305.055 472.795 304.41 473.111C303.766 473.416 303.145 473.65 302.547 473.814C301.949 473.979 301.352 474.102 300.754 474.184V474.254C301.938 474.254 303.027 474.395 304.023 474.676C305.02 474.945 305.887 475.35 306.625 475.889C307.375 476.428 307.961 477.137 308.383 478.016C308.805 478.883 309.016 479.873 309.016 480.986C309.016 481.994 308.834 482.902 308.471 483.711C308.107 484.508 307.621 485.17 307.012 485.697C306.402 486.225 305.682 486.664 304.85 487.016C304.029 487.367 303.174 487.619 302.283 487.771C301.393 487.924 300.461 488 299.488 488H289.328ZM296.535 486.857C297.168 486.975 297.777 487.033 298.363 487.033C300.227 487.033 301.686 486.494 302.74 485.416C303.807 484.338 304.34 482.873 304.34 481.021C304.34 479.041 303.789 477.529 302.688 476.486C301.598 475.432 300.086 474.904 298.152 474.904C297.602 474.904 297.062 474.945 296.535 475.027V486.857ZM296.535 473.832C297.027 473.902 297.479 473.938 297.889 473.938C301.439 473.938 303.215 472.18 303.215 468.664C303.215 467.164 302.816 465.992 302.02 465.148C301.223 464.305 300.004 463.883 298.363 463.883C297.777 463.883 297.168 463.941 296.535 464.059V473.832ZM309.877 488V487.209L312.004 487.033L320.318 462.195H321.109L329.705 487.033L332.025 487.209V488H322.621V487.209L324.994 487.033L322.92 480.723H315.045L313.006 487.033L315.379 487.209V488H309.877ZM315.361 479.668L322.533 479.527L319.018 468.734H318.947L315.361 479.668ZM333.027 488V487.209L335.734 487.033V463.883L333.027 463.707V462.916H341.887C344.266 462.916 346.305 463.215 348.004 463.812C349.703 464.41 351.045 465.277 352.029 466.414C353.025 467.551 353.746 468.869 354.191 470.369C354.648 471.869 354.877 473.604 354.877 475.572C354.877 476.99 354.73 478.314 354.438 479.545C354.145 480.764 353.676 481.9 353.031 482.955C352.398 483.998 351.602 484.895 350.641 485.645C349.691 486.383 348.52 486.963 347.125 487.385C345.742 487.795 344.189 488 342.467 488H333.027ZM340.234 486.857C340.867 486.975 341.441 487.033 341.957 487.033C343.152 487.033 344.213 486.84 345.139 486.453C346.076 486.066 346.855 485.533 347.477 484.854C348.109 484.162 348.631 483.324 349.041 482.34C349.451 481.344 349.744 480.266 349.92 479.105C350.107 477.945 350.201 476.674 350.201 475.291C350.201 473.932 350.137 472.719 350.008 471.652C349.879 470.586 349.633 469.549 349.27 468.541C348.918 467.533 348.449 466.701 347.863 466.045C347.277 465.389 346.504 464.867 345.543 464.48C344.582 464.082 343.457 463.883 342.168 463.883C341.512 463.883 340.867 463.941 340.234 464.059V486.857Z" fill="black"/>
</g>
<defs>
<clipPath id="clip0_5_1386">
<rect width="512" height="512" fill="white"/>
</clipPath>
</defs>
</svg>
